<?xml version="1.0" encoding="UTF-8"?>
<svg width="1428px" height="216px" viewBox="0 0 1428 216" version="1.1" xmlns="http://www.w3.org/2000/svg" xmlns:xlink="http://www.w3.org/1999/xlink">
    <title>Artboard</title>
    <g id="Artboard" stroke="none" stroke-width="1" fill="none" fill-rule="evenodd">
        <g id="Group-4-Copy-10" transform="translate(54.000000, 57.200000)" fill-rule="nonzero" stroke="#FFFFFF">
            <g id="Diablo-Immortal">
                <path d="M41.3,1.68 L0,1.68 L0,100.8 L41.3,100.8 C72.94,100.8 92.82,79.24 92.82,50.96 C92.82,22.4 72.94,1.68 41.3,1.68 Z M31.08,73.08 L31.08,28.84 L38.5,28.84 C52.22,28.84 61.32,36.54 61.32,50.96 C61.32,65.38 52.22,73.08 38.5,73.08 L31.08,73.08 Z" id="Shape"></path>
                <polygon id="Path" points="104.02 100.8 135.1 100.8 135.1 1.68 104.02 1.68"></polygon>
                <path d="M217.56,100.8 L250.32,100.8 L214.2,1.68 L178.36,1.68 L142.1,100.8 L174.72,100.8 L179.62,85.82 L212.66,85.82 L217.56,100.8 Z M205.1,62.44 L187.18,62.44 L196.14,34.86 L205.1,62.44 Z" id="Shape"></path>
                <path d="M310.8,69.02 C310.8,73.92 308.14,75.88 302.54,75.88 L288.4,75.88 L288.4,61.88 L302.54,61.88 C308.14,61.88 310.8,64.26 310.8,69.02 Z M308.7,33.46 C308.7,38.22 306.04,40.32 300.44,40.32 L288.4,40.32 L288.4,26.32 L300.44,26.32 C306.04,26.32 308.7,28.56 308.7,33.46 Z M342.58,73.64 C342.58,62.58 335.86,52.92 323.68,49.98 C333.48,47.46 340.34,39.34 340.34,27.44 C340.34,10.22 327.6,1.68 307.86,1.68 L257.32,1.68 L257.32,100.8 L309.26,100.8 C330.82,100.8 342.58,91 342.58,73.64 Z" id="Shape"></path>
                <polygon id="Path" points="353.08 1.68 353.08 100.8 414.12 100.8 414.12 77.28 384.16 77.28 384.16 1.68"></polygon>
                <path d="M523.04,50.82 C523.04,21 500.5,0 472.22,0 C444.08,0 421.12,21 421.12,50.82 C421.12,80.64 444.08,101.78 472.22,101.78 C500.22,101.78 523.04,80.64 523.04,50.82 Z M452.76,50.82 C452.76,37.38 459.48,28.7 472.22,28.7 C484.68,28.7 491.54,37.38 491.54,50.82 C491.54,63.98 484.68,72.8 472.22,72.8 C459.48,72.8 452.76,63.98 452.76,50.82 Z" id="Shape"></path>
                <polygon id="Path" points="558.04 100.8 589.12 100.8 589.12 1.68 558.04 1.68"></polygon>
                <polygon id="Path" points="603.12 100.8 634.2 100.8 634.2 51.38 649.46 100.8 676.06 100.8 691.32 51.38 691.32 100.8 722.26 100.8 722.26 1.68 684.32 1.68 663.04 61.18 641.2 1.68 603.12 1.68"></polygon>
                <polygon id="Path" points="736.26 100.8 767.34 100.8 767.34 51.38 782.6 100.8 809.2 100.8 824.46 51.38 824.46 100.8 855.4 100.8 855.4 1.68 817.46 1.68 796.18 61.18 774.34 1.68 736.26 1.68"></polygon>
                <path d="M968.52,50.82 C968.52,21 945.98,0 917.7,0 C889.56,0 866.6,21 866.6,50.82 C866.6,80.64 889.56,101.78 917.7,101.78 C945.7,101.78 968.52,80.64 968.52,50.82 Z M898.24,50.82 C898.24,37.38 904.96,28.7 917.7,28.7 C930.16,28.7 937.02,37.38 937.02,50.82 C937.02,63.98 930.16,72.8 917.7,72.8 C904.96,72.8 898.24,63.98 898.24,50.82 Z" id="Shape"></path>
                <path d="M1032.08,36.12 C1032.08,42 1029,44.52 1023.12,44.52 L1010.8,44.52 L1010.8,27.72 L1023.12,27.72 C1029,27.72 1032.08,31.08 1032.08,36.12 Z M979.72,1.68 L979.72,100.8 L1010.8,100.8 L1010.8,65.24 L1010.94,65.24 L1029.56,100.8 L1063.72,100.8 L1042.16,62.86 C1056.3,58.24 1063.58,47.18 1063.58,34.16 C1063.58,15.96 1050.84,1.68 1025.92,1.68 L979.72,1.68 Z" id="Shape"></path>
                <polygon id="Path" points="1067.92 26.32 1093.96 26.32 1093.96 100.8 1125.04 100.8 1125.04 26.32 1151.36 26.32 1151.36 1.68 1067.92 1.68"></polygon>
                <path d="M1228.22,100.8 L1260.98,100.8 L1224.86,1.68 L1189.02,1.68 L1152.76,100.8 L1185.38,100.8 L1190.28,85.82 L1223.32,85.82 L1228.22,100.8 Z M1215.76,62.44 L1197.84,62.44 L1206.8,34.86 L1215.76,62.44 Z" id="Shape"></path>
                <polygon id="Path" points="1267.98 1.68 1267.98 100.8 1329.02 100.8 1329.02 77.28 1299.06 77.28 1299.06 1.68"></polygon>
            </g>
        </g>
    </g>
</svg>