<?xml version="1.0" encoding="UTF-8"?>
<svg width="1996px" height="216px" viewBox="0 0 1996 216" version="1.1" xmlns="http://www.w3.org/2000/svg" xmlns:xlink="http://www.w3.org/1999/xlink">
    <title>Artboard</title>
    <g id="Artboard" stroke="none" stroke-width="1" fill="none" fill-rule="evenodd">
        <g id="Group-4-Copy-10" transform="translate(60.400000, 49.960000)" fill="#FFFFFF" fill-rule="nonzero">
            <path d="M89.76,0 L89.76,108 L70.8,108 L70.8,53.16 L56.64,53.16 C54.48,71.64 44.28,84.84 28.56,84.84 C10.92,84.84 0,68.16 0,45.6 C0,23.28 10.92,6.48 28.56,6.48 C44.04,6.48 54.24,19.2 56.52,37.32 L56.52,37.32 L70.8,37.32 L70.8,0 L89.76,0 Z M1844.308,0 L1844.308,38.4 L1858.708,38.4 L1858.708,53.76 L1844.308,53.76 L1844.308,108 L1825.588,108 L1825.588,0 L1844.308,0 Z M1025.556,0 L1025.556,108 L1007.796,108 L1007.796,55.2 L1001.196,55.2 L1001.196,103.44 L983.796,103.44 L983.796,1.56 L1001.196,1.56 L1001.196,39.6 L1007.796,39.6 L1007.796,0 L1025.556,0 Z M394.68,0 L394.68,39.24 L408,39.24 L408,54.84 L394.68,54.84 L394.68,108 L375.72,108 L375.72,0 L394.68,0 Z M810.156,0 L810.156,42.24 L823.356,42.24 L823.356,57.6 L810.156,57.6 L810.156,108 L791.436,108 L791.436,0 L810.156,0 Z M191.76,0 L191.76,108 L173.04,108 L173.04,0 L191.76,0 Z M297.12,0 L297.12,108 L278.16,108 L278.16,51.84 L260.28,51.84 L260.28,36 L278.16,36 L278.16,0 L297.12,0 Z M1686.028,79.2 L1686.028,92.52 L1742.548,92.52 L1742.548,107.4 L1666.948,107.4 L1666.948,79.2 L1686.028,79.2 Z M857.556,73.2 L857.556,89.4 L915.756,89.4 L915.756,104.4 L838.596,104.4 L838.596,73.2 L857.556,73.2 Z M1603.842,6.89 C1627.828,6.89 1646.99,20.156 1646.99,51.646 L1646.99,51.646 L1646.99,54.594 C1646.99,86.62 1626.22,99.886 1603.172,99.886 C1579.052,99.886 1560.024,86.62 1560.024,55.13 L1560.024,55.13 L1560.024,52.182 C1560.024,20.156 1580.794,6.89 1603.842,6.89 Z M500.376,6.89 C524.362,6.89 543.524,20.156 543.524,51.646 L543.524,51.646 L543.524,54.594 C543.524,86.62 522.754,99.886 499.706,99.886 C475.586,99.886 456.558,86.62 456.558,55.13 L456.558,55.13 L456.558,52.182 C456.558,20.156 477.328,6.89 500.376,6.89 Z M584.26,8.364 L613.338,58.748 L613.74,58.748 L613.74,8.364 L635.18,8.364 L635.18,98.412 L611.194,98.412 L579.034,42.266 L578.498,42.266 L578.498,98.412 L557.058,98.412 L557.058,8.364 L584.26,8.364 Z M1363.044,8.364 L1394.266,98.412 L1368.538,98.412 L1362.508,80.59 L1333.028,80.59 L1327.4,98.412 L1304.62,98.412 L1336.11,8.364 L1363.044,8.364 Z M714.374,8.364 L714.374,26.454 L677.122,26.454 L677.122,43.606 L706.2,43.606 L706.2,61.294 L677.122,61.294 L677.122,80.322 L715.58,80.322 L715.58,98.412 L652.198,98.412 L652.198,8.364 L714.374,8.364 Z M1209.748,8.364 C1237.888,8.364 1254.638,20.29 1254.638,51.244 L1254.638,51.244 L1254.638,54.326 C1254.638,84.744 1237.888,98.412 1209.882,98.412 L1209.882,98.412 L1175.176,98.412 L1175.176,8.364 Z M1516.474,8.364 L1516.474,80.322 L1550.644,80.322 L1550.644,98.412 L1491.282,98.412 L1491.282,8.364 L1516.474,8.364 Z M1443.578,8.364 C1463.678,8.364 1474.398,16.002 1474.398,31.278 C1474.398,41.596 1469.708,48.162 1459.39,51.11 L1459.39,51.11 L1459.39,51.512 C1470.646,53.522 1478.418,59.552 1478.418,72.818 C1478.418,87.424 1468.502,98.412 1445.186,98.412 L1445.186,98.412 L1404.584,98.412 L1404.584,8.364 Z M1294.034,8.364 L1294.034,98.412 L1268.708,98.412 L1268.708,8.364 L1294.034,8.364 Z M1884.388,78 L1884.388,96.12 L1864.708,96.12 L1864.708,78 L1884.388,78 Z M1123.356,6.48 L1123.356,45.24 L1065.516,45.24 L1065.516,53.4 L1125.636,53.4 L1125.636,69 L1094.076,69 L1094.076,81.12 L1133.556,81.12 L1133.556,95.88 L1035.876,95.88 L1035.876,81.12 L1075.356,81.12 L1075.356,69 L1046.556,69 L1046.556,29.64 L1104.396,29.64 L1104.396,22.08 L1046.556,22.08 L1046.556,6.48 L1123.356,6.48 Z M755.796,43.68 C770.556,43.68 782.556,52.92 782.556,67.08 C782.556,81.48 770.556,90.6 755.796,90.6 C741.156,90.6 729.516,81.48 729.516,67.08 C729.516,52.92 741.156,43.68 755.796,43.68 Z M247.56,8.16 L247.56,22.08 C247.56,45.6 253.68,61.56 271.92,70.2 L271.92,70.2 L261,84.96 C252.48,80.76 241.92,69.12 238.32,59.4 C235.32,69.6 225.96,81.24 214.56,87.36 L214.56,87.36 L203.04,72.84 C222.24,63 228.72,46.44 228.72,22.44 L228.72,22.44 L228.72,8.16 L247.56,8.16 Z M975.996,12.12 L975.996,27 L953.436,27 L953.436,69.96 C962.796,69.96 972.636,69 978.516,67.68 L978.516,67.68 L979.836,82.68 C971.436,84.84 953.556,85.56 943.476,85.44 L943.476,85.44 L934.716,85.32 L934.716,12.12 L975.996,12.12 Z M160.44,9.24 L160.44,23.88 L126.6,23.88 L126.6,67.44 C139.8,68.16 156.96,66.84 166.8,64.8 L166.8,64.8 L168.36,80.04 C158.944615,81.7015385 136.339172,83.2608284 120.930451,83.3021211 L119.663487,83.3020179 C118.830533,83.2995661 118.021538,83.2923077 117.24,83.28 C114.12,83.28 110.88,83.16 107.76,83.16 L107.76,83.16 L107.76,9.24 L160.44,9.24 Z M1812.868,9.72 L1812.868,25.08 L1781.188,25.08 L1781.188,67.32 L1783.348,67.32 C1795.468,67.32 1809.148,66.36 1819.468,64.32 L1819.468,64.32 L1821.148,79.56 C1812.028,81.48 1792.228,83.16 1772.548,83.16 L1772.548,83.16 L1762.708,83.16 L1762.708,9.72 L1812.868,9.72 Z M330.24,10.08 L330.24,66.24 C344.04,66.6 361.08,64.44 370.44,62.76 L370.44,62.76 L372.36,78.48 C357.36,82.08 333.84,83.16 320.28,83.16 L320.28,83.16 L311.76,83.16 L311.76,10.08 L330.24,10.08 Z M1439.29,59.418 L1429.24,59.418 L1429.24,82.064 L1439.96,82.064 C1447.732,82.064 1452.422,78.446 1452.422,70.54 C1452.422,62.768 1447.866,59.418 1439.29,59.418 L1439.29,59.418 Z M499.84,25.248 C488.718,25.248 482.956,33.422 482.956,50.44 L482.956,50.44 L482.956,54.996 C482.956,74.426 488.718,81.528 500.242,81.528 C511.23,81.528 516.992,73.354 516.992,56.202 L516.992,56.202 L516.992,51.646 C516.992,32.886 511.632,25.248 499.84,25.248 Z M1603.306,25.248 C1592.184,25.248 1586.422,33.422 1586.422,50.44 L1586.422,50.44 L1586.422,54.996 C1586.422,74.426 1592.184,81.528 1603.708,81.528 C1614.696,81.528 1620.458,73.354 1620.458,56.202 L1620.458,56.202 L1620.458,51.646 C1620.458,32.886 1615.098,25.248 1603.306,25.248 Z M1740.628,0 L1740.628,34.92 L1753.948,34.92 L1753.948,50.4 L1740.628,50.4 L1740.628,81 L1722.148,81 L1722.148,0 L1740.628,0 Z M1208.676,26.186 L1200.368,26.186 L1200.368,80.59 L1209.346,80.59 C1221.942,80.59 1228.106,74.292 1228.106,55.398 L1228.106,55.398 L1228.106,50.842 C1228.106,31.68 1221.004,26.186 1208.676,26.186 L1208.676,26.186 Z M1686.388,36.48 C1702.108,36.48 1712.788,45.72 1712.788,56.4 C1712.788,67.56 1702.108,76.44 1686.388,76.44 C1670.548,76.44 1659.988,67.44 1659.988,56.4 C1659.988,45.72 1670.428,36.48 1686.388,36.48 Z M755.796,57.72 C750.276,57.72 746.076,61.32 746.076,67.08 C746.076,72.84 750.276,76.32 755.796,76.32 C761.436,76.32 765.876,72.84 765.876,67.08 C765.876,61.32 761.436,57.72 755.796,57.72 Z M28.56,23.64 C22.68,23.64 17.88,30.48 17.88,45.6 C17.88,60.84 22.68,67.8 28.56,67.8 C34.56,67.8 39.48,60.84 39.48,45.6 C39.48,30.48 34.56,23.64 28.56,23.64 Z M925.956,51.12 L925.956,66 L828.276,66 L828.276,51.12 L925.956,51.12 Z M1347.902,34.494 L1347.366,34.494 L1337.852,64.376 L1357.416,64.376 L1347.902,34.494 Z M1686.508,49.68 C1681.468,49.68 1677.388,52.32 1677.388,56.4 C1677.388,60.48 1681.468,63 1686.508,63 C1691.548,63 1695.628,60.48 1695.628,56.4 C1695.628,52.32 1691.548,49.68 1686.508,49.68 Z M1438.62,24.444 L1429.24,24.444 L1429.24,45.75 L1438.352,45.75 C1445.32,45.75 1450.278,42.802 1450.278,34.762 C1450.278,27.258 1446.258,24.444 1438.62,24.444 L1438.62,24.444 Z M858.636,3.84 L858.636,27.36 L915.396,27.36 L915.396,42.48 L839.676,42.48 L839.676,3.84 L858.636,3.84 Z M786.276,25.32 L786.276,39.84 L723.876,39.84 L723.876,25.32 L786.276,25.32 Z M1717.588,19.8 L1717.588,34.56 L1654.708,34.56 L1654.708,19.8 L1717.588,19.8 Z M772.116,5.16 L772.116,19.8 L739.956,19.8 L739.956,5.16 L772.116,5.16 Z M1702.588,1.8 L1702.588,16.2 L1670.548,16.2 L1670.548,1.8 L1702.588,1.8 Z" id="Combined-Shape"></path>
        </g>
    </g>
</svg>